HIERARCHY
ROOT hip
{
	OFFSET 0.000000 0.000000 0.000000 
	CHANNELS 6 Xposition Yposition Zposition Xrotation Zrotation Yrotation
	JOINT abdomen
	{
		OFFSET 0.000000 3.402643 0.000000 
		CHANNELS 3 Xrotation Zrotation Yrotation
		JOINT chest
		{
			OFFSET 0.000000 8.438565 -0.680529 
			CHANNELS 3 Xrotation Zrotation Yrotation
			JOINT neck
			{
				OFFSET 0.000000 10.207942 -0.272212 
				CHANNELS 3 Xrotation Zrotation Yrotation
				JOINT head
				{
					OFFSET 0.000000 3.130431 0.000000 
					CHANNELS 3 Xrotation Zrotation Yrotation
					End Site
					{
						OFFSET 0.000000 3.130435 0.000000 
					}
				}
			}
			JOINT lCollar
			{
				OFFSET 3.470700 6.669187 -0.816635 
				CHANNELS 3 Yrotation Zrotation Xrotation
				JOINT lShldr
				{
					OFFSET 3.198488 0.000000 0.000000 
					CHANNELS 3 Zrotation Yrotation Xrotation
					JOINT lForeArm
					{
						OFFSET 10.139888 0.000000 0.000000 
						CHANNELS 3 Yrotation Zrotation Xrotation
						JOINT lHand
						{
							OFFSET 8.370511 0.000000 0.000000 
							CHANNELS 3 Zrotation Yrotation Xrotation
							End Site
							{
								OFFSET 4.083176 0.000000 0.000000 
							}
						}
					}
				}
			}
			JOINT rCollar
			{
				OFFSET -3.470700 6.669187 -0.816635 
				CHANNELS 3 Yrotation Zrotation Xrotation
				JOINT rShldr
				{
					OFFSET -3.198488 0.000000 0.000000 
					CHANNELS 3 Zrotation Yrotation Xrotation
					JOINT rForeArm
					{
						OFFSET -10.139888 0.000000 0.000000 
						CHANNELS 3 Yrotation Zrotation Xrotation
						JOINT rHand
						{
							OFFSET -8.370511 0.000000 0.000000 
							CHANNELS 3 Zrotation Yrotation Xrotation
							End Site
							{
								OFFSET -4.083176 0.000000 0.000000 
							}
						}
					}
				}
			}
		}
	}
	JOINT lThigh
	{
		OFFSET 5.308129 -1.633274 1.361059 
		CHANNELS 3 Xrotation Zrotation Yrotation
		JOINT lShin
		{
			OFFSET -2.041588 -20.007561 0.000000 
			CHANNELS 3 Xrotation Zrotation Yrotation
			JOINT lFoot
			{
				OFFSET 0.000000 -19.190928 -1.224953 
				CHANNELS 3 Xrotation Yrotation Zrotation
				End Site
				{
					OFFSET 0.000000 -2.449906 4.627600 
				}
			}
		}
	}
	JOINT rThigh
	{
		OFFSET -5.308129 -1.633274 1.361059 
		CHANNELS 3 Xrotation Zrotation Yrotation
		JOINT rShin
		{
			OFFSET 2.041588 -20.007561 0.000000 
			CHANNELS 3 Xrotation Zrotation Yrotation
			JOINT rFoot
			{
				OFFSET 0.000000 -19.190928 -1.224953 
				CHANNELS 3 Xrotation Yrotation Zrotation
				End Site
				{
					OFFSET 0.000000 -2.449906 4.627600 
				}
			}
		}
	}
}
MOTION
Frames: 6
Frame Time: 0.033333
12.022959 47.937073 -46.053707 -18.597618 -12.042974 -23.787552 49.867733 4.526062 3.087863 -20.839844 0.000000 0.000000 2.802426 -0.384932 -7.300485 8.586096 -4.084739 0.307924 -4.754608 -0.109225 -0.002657 -75.198135 21.518444 -3.690629 -3.623226 10.575055 13.504279 -9.791936 -2.138112 -16.634428 4.754608 0.109225 -0.002676 73.585846 -18.031748 -19.587557 2.591716 0.130755 17.268265 -6.520791 20.395685 25.756342 -1.854375 24.952656 -0.245881 43.677963 11.320934 -26.211630 -35.303474 -11.318475 -13.324030 35.576054 -27.233427 -23.117445 22.942312 0.449237 4.829309 -20.711901 -7.298018 14.814190 
12.041956 47.876900 -45.745449 -18.765978 -12.691339 -24.238241 49.920357 4.672298 3.202092 -20.839844 0.000000 0.000000 3.432268 -0.336636 -7.411821 8.586096 -4.084739 0.307924 -4.754608 -0.109225 -0.002657 -75.194908 21.844343 -4.039907 -3.439667 10.237315 13.353488 -9.767746 -1.810535 -16.402676 4.754608 0.109225 -0.002676 73.306038 -18.306892 -19.513788 2.592737 0.137250 17.473471 -6.659842 20.280577 25.567694 -1.093397 25.095245 -0.012559 44.678150 11.646716 -25.621511 -36.148930 -10.943535 -12.332255 36.713188 -27.127169 -23.496799 21.661064 0.607041 5.064466 -20.348063 -6.949650 14.948410 
12.035639 47.805115 -45.405529 -18.935860 -13.561763 -24.756058 50.015289 4.753290 3.168375 -20.839844 0.000000 0.000000 3.909056 0.022583 -7.434394 8.586096 -4.084739 0.307924 -4.754608 -0.109225 -0.002657 -74.982285 22.460938 -4.451520 -3.391645 9.487188 13.492969 -9.443408 -1.473527 -15.966720 4.754608 0.109225 -0.002676 73.058388 -18.589083 -19.444080 2.594018 0.142972 17.727499 -6.824678 20.165833 25.431087 -0.097040 25.326136 0.254881 45.717037 12.128143 -24.997402 -37.142693 -10.421958 -11.017618 37.911602 -26.892633 -23.736124 20.357756 0.786149 5.308478 -19.818151 -6.549909 15.156579 
12.027185 47.705887 -45.045551 -18.909782 -14.438195 -25.314171 50.006783 4.653036 3.167682 -20.839844 0.000000 0.000000 4.186069 0.560392 -7.524089 8.586096 -4.084739 0.307924 -4.754608 -0.109225 -0.002657 -74.566833 22.984838 -4.759379 -3.161510 8.879368 13.722036 -8.897408 -1.528949 -15.495085 4.754608 0.109225 -0.002676 72.965729 -18.837029 -19.671045 2.592688 0.137405 17.463705 -6.631124 20.134319 25.338518 0.527764 25.704365 0.499099 46.887009 12.634281 -24.571585 -37.470276 -10.108295 -10.465271 38.672832 -26.667826 -23.669378 19.434093 0.835235 5.663548 -19.074717 -6.232460 15.569601 
12.052515 47.565491 -44.674488 -18.706398 -15.219113 -25.869093 49.939384 4.563006 3.076716 -20.839844 0.000000 0.000000 4.216616 1.339729 -7.649225 8.586096 -4.084739 0.307924 -4.754608 -0.109225 -0.002657 -74.228653 23.266745 -5.004047 -2.865580 8.525803 14.072083 -8.595082 -1.422237 -14.756515 4.754608 0.109225 -0.002676 72.882927 -19.156769 -19.941353 2.600280 0.126357 17.111858 -6.482927 20.314913 25.109043 0.722906 26.129379 0.721391 48.289230 13.099380 -24.236710 -37.326115 -9.997761 -10.531824 38.714745 -26.629879 -23.352945 19.408058 0.669204 6.240983 -18.140345 -5.888443 16.135881 
12.096323 47.409248 -44.277027 -18.466120 -16.126728 -26.363342 50.007561 4.737326 2.658377 -20.839844 0.000000 0.000000 4.040394 2.403003 -7.253806 8.586096 -4.084739 0.307924 -4.754608 -0.109225 -0.002657 -74.092583 23.395157 -5.057206 -2.512867 8.482392 14.344282 -8.723852 -1.169321 -14.376403 4.754608 0.109225 -0.002676 72.736137 -19.456654 -20.032167 2.608632 0.132439 16.906788 -6.518652 20.472073 24.670630 0.859494 26.648973 1.002726 49.854950 13.619444 -23.909925 -37.057316 -9.924515 -10.679504 38.430210 -26.530991 -22.696812 19.856009 0.392875 6.948126 -17.020834 -5.511583 16.487429 
